# AST/ASF file generated using VICON BodyLanguage
# -----------------------------------------------
:version 1.10
:name VICON
:units
  mass 1.0
  length 0.45
  angle deg
:documentation
   .ast/.asf automatically generated from VICON data using
   VICON BodyBuilder and BodyLanguage model FoxedUp or BRILLIANT.MOD
:root
   order TX TY TZ RX RY RZ
   axis XYZ
   position 0 0 0  
   orientation 0 0 0 
:bonedata
  begin
     id 1 
     name lhipjoint
     direction 0.645893 -0.654526 0.392961 
     length 2.38111 
     axis 0 0 0  XYZ
  end
  begin
     id 2 
     name lfemur
     direction 0.34202 -0.939693 0  
     length 6.6822  
     axis 0 0 20  XYZ
    dof rx ry rz
    limits (-160.0 20.0)
           (-70.0 70.0)
           (-60.0 70.0)
  end
  begin
     id 3 
     name ltibia
     direction 0.34202 -0.939693 0   
     length 6.93904   
     axis 0 0 20   XYZ
    dof rx
    limits (-10.0 170.0)
  end
  begin
     id 4 
     name lfoot
     direction 0.0694967 -0.190941 0.979138   
     length 2.13616   
     axis -90 7.62852e-016 20   XYZ
    dof rx rz
    limits (-45.0 90.0)
           (-70.0 20.0)
  end
  begin
     id 5 
     name ltoes
     direction 1.535e-011 -4.2202e-011 1   
     length 1.07536   
     axis -90 7.62852e-016 20   XYZ
    dof rx
    limits (-90.0 20.0)
  end
  begin
     id 6 
     name rhipjoint
     direction -0.700219 -0.612087 0.367481   
     length 2.54621  
     axis 0 0 0  XYZ 
  end
  begin
     id 7 
     name rfemur
     direction -0.34202 -0.939693 0   
     length 6.55353   
     axis 0 0 -20   XYZ
    dof rx ry rz
    limits (-160.0 20.0)
           (-70.0 70.0)
           (-70.0 60.0)
  end
  begin
     id 8 
     name rtibia
     direction -0.34202 -0.939693 0   
     length 6.8736   
     axis 0 0 -20   XYZ
    dof rx
    limits (-10.0 170.0)
 end
 begin
     id 9 
     name rfoot
     direction -0.0679995 -0.186827 0.980037   
     length 2.1218  
     axis -90 -7.62852e-016 -20   XYZ
    dof rx rz
    limits (-45.0 90.0)
           (-20.0 70.0)
  end
  begin
     id 10 
     name rtoes
     direction -1.53589e-011 -4.21772e-011 1   
     length 1.06864   
     axis -90 -7.62852e-016 -20   XYZ
    dof rx
    limits (-90.0 20.0)
  end
  begin
     id 11 
     name lowerback
     direction -0.0416607 0.996347 -0.0745409   
     length 2.12205   
     axis 0 0 0   XYZ
    dof rx ry rz
    limits (-20.0 45.0)
           (-30.0 30.0)
           (-30.0 30.0)
  end
  begin
     id 12 
     name upperback
     direction -0.000153993 0.999276 -0.0380568   
     length 2.12759   
     axis 0 0 0   XYZ
    dof rx ry rz
    limits (-20.0 45.0)
           (-30.0 30.0)
           (-30.0 30.0)
  end
  begin
     id 13 
     name thorax
     direction 0.0187671 0.999821 -0.00241421   
     length 2.13704   
     axis 0 0 0   XYZ
    dof rx ry rz
    limits (-20.0 45.0)
           (-30.0 30.0)
           (-30.0 30.0)
  end
  begin
     id 14 
     name lowerneck
     direction 0.0268157 0.964865 0.261374   
     length 1.65253   
     axis 0 0 0   XYZ
    dof rx ry rz
    limits (-20.0 45.0)
           (-30.0 30.0)
           (-30.0 30.0)
  end
  begin
     id 15 
     name upperneck
     direction 0.00263774 0.939908 -0.341418   
     length 1.72375   
     axis 0 0 0   XYZ
    dof rx ry rz
    limits (-20.0 45.0)
           (-30.0 30.0)
           (-30.0 30.0)
  end
  begin
     id 16
     name head
     direction -0.00526001 0.989001 -0.147818  
     length 1.74878  
     axis 0 0 0   XYZ
    dof rx ry rz
    limits (-20.0 45.0)
           (-30.0 30.0)
           (-30.0 30.0)
  end
  begin
     id 17 
     name lclavicle
     direction 0.881214 0.461162 -0.103884  
     length 3.25108  
     axis 0 0 0   XYZ
    dof ry rz
    limits (-20.0 10.0)
           (0.0 20.0)
  end
  begin
     id 18 
     name lhumerus
     direction 1 -4.4899e-011 3.38092e-027   
     length 4.87408   
     axis 180 -30 -90   XYZ
    dof rx ry rz
    limits (-60.0 90.0)
           (-90.0 90.0)
           (-90.0 90.0)
  end
  begin
     id 19
     name lradius
     direction 1 -4.48931e-011 9.96288e-027   
     length 2.76729   
     axis 180 -30 -90   XYZ
    dof rx
    limits (-10.0 170.0)
  end
  begin
     id 20
     name lwrist
     direction 1 -4.4896e-011 1.50617e-026   
     length 1.38364   
     axis -9.31234e-015 90 90   XYZ
    dof ry
    limits (-180.0 0.0)
 end
  begin
     id 21 
     name lhand
     direction 1 -4.49038e-011 3.01286e-026   
     length 0.98922   
     axis -1.92217e-014 90 90   XYZ
    dof rx rz
    limits (-90.0 90.0)
           (-45.0 45.0)
  end
  begin
     id 22 
     name lfingers
     direction 1 -4.49051e-011 6.02588e-026   
     length 0.797535   
     axis -3.84436e-014 90 90   XYZ
    dof rx
    limits (0.0 90.0)
  end
  begin
     id 23
     name lthumb
     direction 0.707107 -6.34901e-011 0.707107   
     length 1.14511   
     axis -90 45 2.19363e-014   XYZ
    dof rx rz
    limits (-45.0 45.0)
           (-45.0 45.0)
  end
  begin
     id 24 
     name rclavicle
     direction -0.893894 0.441652 -0.0767889   
     length 3.29361  
     axis 0 0 0   XYZ 
    dof ry rz
    limits (-10.0 20.0)
           (-20.0 0.0)
  end
  begin
     id 25 
     name rhumerus
     direction -1 -4.48945e-011 8.0491e-028  
     length 4.71404   
     axis 180 30 90   XYZ
    dof rx ry rz
    limits (-90.0 60.0)
           (-90.0 90.0)
           (-90.0 90.0)
  end
  begin
     id 26 
     name rradius
     direction -1 -4.48986e-011 9.27795e-027   
     length 2.83468   
     axis 180 30 90   XYZ
    dof rx
    limits (-10.0 170.0)
  end
  begin
     id 27 
     name rwrist
     direction -1 -4.49029e-011 1.5064e-026   
     length 1.41734   
     axis -9.31234e-015 -90 -90   XYZ
    dof ry
    limits (-180.0 0.0)
  end
  begin
     id 28
     name rhand
     direction -1 -4.48857e-011 3.01165e-026   
     length 0.868195   
     axis -1.92217e-014 -90 -90   XYZ
    dof rx rz
    limits (-90.0 90.0)
           (-45.0 45.0)
  end
  begin
     id 29
     name rfingers
     direction -1 -4.49048e-011 6.02585e-026   
     length 0.699961   
     axis -3.84436e-014 -90 -90   XYZ
    dof rx
    limits (0.0 90.0)
  end
  begin
     id 30
     name rthumb
     direction -0.707107 -6.34854e-011 0.707107   
     length 1.00501   
     axis -90 -45 -2.19363e-014   XYZ
    dof rx rz
    limits (-45.0 45.0)
           (-45.0 45.0)
  end
:hierarchy
  begin
    root lhipjoint rhipjoint lowerback
    lhipjoint lfemur
    lfemur ltibia
    ltibia lfoot
    lfoot ltoes
    rhipjoint rfemur
    rfemur rtibia
    rtibia rfoot
    rfoot rtoes
    lowerback upperback
    upperback thorax
    thorax lowerneck lclavicle rclavicle
    lowerneck upperneck
    upperneck head
    lclavicle lhumerus
    lhumerus lradius
    lradius lwrist
    lwrist lhand lthumb
    lhand lfingers
    rclavicle rhumerus
    rhumerus rradius
    rradius rwrist
    rwrist rhand rthumb
    rhand rfingers
  end

#!OML:ASF H:\ManfredObstacles\Project 1\Capture day 2\Session 1\male.ASF
:FULLY-SPECIFIED
:DEGREES
130
root 1.84949 14.8184 16.5486 -157.216 -3.90119 -185.002
lowerback 13.5569 0.498473 -4.1138
upperback 5.97146 -0.57979 -0.225776
thorax -1.29334 -0.652391 2.17376
lowerneck -35.3827 -0.625425 0.627745
upperneck 33.2078 -2.63853 1.18436
head 18.439 -0.960523 -0.283707
rclavicle -7.55382e-015 8.54774e-015
rhumerus -89.8225 -21.0521 16.4205
rradius 12.9435
rwrist 106.91
rhand -1.42806 -9.40046
rfingers 7.12502
rthumb 24.2219 -37.8907
lclavicle -7.55382e-015 8.54774e-015
lhumerus -67.9007 -0.985732 37.8305
lradius 16.8216
lwrist -62.4074
lhand -4.88037 2.15374
lfingers 7.12502
lthumb 20.9084 31.047
rfemur -53.5562 -0.445326 21.4738
rtibia 61.4963
rfoot -22.4603 -18.3886
rtoes -12.8387
lfemur -52.992 -7.44115 -23.5045
ltibia 56.6806
lfoot -9.00629 27.9668
ltoes 2.23332
131
root 1.84593 14.714 16.5298 -156.74 -4.0521 -185.087
lowerback 14.0221 0.47598 -4.07172
upperback 6.11657 -0.658558 -0.159156
thorax -1.38495 -0.706644 2.23602
lowerneck -35.4415 -0.68682 0.623804
upperneck 32.5585 -2.59386 1.15144
head 18.096 -0.931608 -0.276025
rclavicle -2.04748e-014 4.37326e-015
rhumerus -90.6702 -20.2738 18.9228
rradius 12.9583
rwrist 108.341
rhand -1.37308 -9.35984
rfingers 7.12502
rthumb 24.2746 -37.8431
lclavicle -2.04748e-014 4.37326e-015
lhumerus -68.9328 -1.28256 37.1237
lradius 16.704
lwrist -63.2108
lhand -5.05857 1.93081
lfingers 7.12502
lthumb 20.7371 30.8428
rfemur -55.175 -0.758768 21.6095
rtibia 63.6018
rfoot -22.9996 -18.5917
rtoes -13.4322
lfemur -54.5392 -7.59483 -23.534
ltibia 58.6154
lfoot -9.15905 28.2998
ltoes 1.57174
132
root 1.84305 14.6024 16.5107 -156.249 -4.18158 -185.16
lowerback 14.4556 0.47091 -4.03123
upperback 6.25825 -0.71148 -0.0884179
thorax -1.46385 -0.747894 2.3001
lowerneck -35.4853 -0.741782 0.637757
upperneck 31.9146 -2.54989 1.09526
head 17.7592 -0.906446 -0.283075
rclavicle 6.36111e-015 -1.17283e-014
rhumerus -91.6246 -19.5473 21.7521
rradius 12.9813
rwrist 110.031
rhand -1.35493 -9.32353
rfingers 7.12502
rthumb 24.292 -37.8044
lclavicle 6.36111e-015 -1.17283e-014
lhumerus -69.8461 -1.4281 36.1963
lradius 16.5247
lwrist -64.2756
lhand -5.27387 1.65711
lfingers 7.12502
lthumb 20.5303 30.5916
rfemur -56.7951 -1.00457 21.7397
rtibia 65.682
rfoot -23.5818 -18.8171
rtoes -13.9736
lfemur -56.1487 -7.73212 -23.5447
ltibia 60.6182
lfoot -9.29562 28.6378
ltoes 0.767408
133
root 1.84061 14.4847 16.4899 -155.755 -4.27939 -185.211
lowerback 14.8577 0.481399 -3.98468
upperback 6.3957 -0.740151 -0.017487
thorax -1.53126 -0.776714 2.35741
lowerneck -35.4562 -0.789444 0.653584
upperneck 31.2436 -2.50082 1.03345
head 17.3997 -0.882798 -0.291752
rclavicle 1.23246e-014 1.70955e-014
rhumerus -92.7241 -18.8741 25.0529
rradius 13.0272
rwrist 112.151
rhand -1.36941 -9.27332
rfingers 7.12502
rthumb 24.2781 -37.7561
lclavicle 1.23246e-014 1.70955e-014
lhumerus -70.6722 -1.47097 35.14
lradius 16.3235
lwrist -65.3964
lhand -5.51097 1.37832
lfingers 7.12502
lthumb 20.3024 30.3372
rfemur -58.3498 -1.16824 21.8633
rtibia 67.6209
rfoot -24.177 -19.038
rtoes -14.425
lfemur -57.7455 -7.83484 -23.5331
ltibia 62.5619
lfoot -9.40546 28.9742
ltoes -0.134099
134
root 1.83858 14.3626 16.467 -155.267 -4.33517 -185.227
lowerback 15.2357 0.515278 -3.93032
upperback 6.53364 -0.735316 0.0531698
thorax -1.58704 -0.788974 2.40465
lowerneck -35.3499 -0.838693 0.659911
upperneck 30.5343 -2.46166 0.989487
head 17.013 -0.864007 -0.29296
rclavicle 2.06736e-014 -1.98785e-015
rhumerus -94.0446 -18.2574 29.0294
rradius 13.1103
rwrist 114.832
rhand -1.40296 -9.21592
rfingers 7.12502
rthumb 24.2459 -37.703
lclavicle 2.06736e-014 -1.98785e-015
lhumerus -71.4015 -1.3782 33.8837
lradius 16.0861
lwrist -66.7728
lhand -5.85654 1.07011
lfingers 7.12502
lthumb 19.9703 30.0639
rfemur -59.8221 -1.23737 21.9843
rtibia 69.459
rfoot -24.8495 -19.2689
rtoes -14.7954
lfemur -59.3184 -7.88053 -23.4974
ltibia 64.5026
lfoot -9.58168 29.3545
ltoes -1.06752
135
root 1.83833 14.2756 16.4416 -154.793 -4.34413 -185.207
lowerback 15.5978 0.57332 -3.87233
upperback 6.66849 -0.696842 0.12046
thorax -1.63931 -0.78433 2.44065
lowerneck -35.2052 -0.895781 0.647155
upperneck 29.8096 -2.44149 0.973651
head 16.6205 -0.852623 -0.283247
rclavicle -2.78299e-015 1.19271e-014
rhumerus -95.6199 -17.6619 33.7991
rradius 13.256
rwrist 118.211
rhand -1.44655 -9.14461
rfingers 7.12502
rthumb 24.2041 -37.6372
lclavicle -2.78299e-015 1.19271e-014
lhumerus -72.0469 -1.14739 32.3988
lradius 15.8281
lwrist -68.5734
lhand -6.34083 0.716566
lfingers 7.12502
lthumb 19.5047 29.7582
rfemur -60.983 -1.23616 22.0937
rtibia 70.9674
rfoot -25.6164 -19.4862
rtoes -15.0767
lfemur -60.6483 -7.84247 -23.4427
ltibia 66.2319
lfoot -9.87158 29.7802
ltoes -1.93453
136
root 1.8364 14.1524 16.4135 -154.332 -4.30786 -185.154
lowerback 15.95 0.64926 -3.81956
upperback 6.80111 -0.634981 0.186907
thorax -1.68958 -0.768231 2.47449
lowerneck -35.0588 -0.952966 0.620264
upperneck 29.0917 -2.42926 0.978093
head 16.2403 -0.844293 -0.264887
rclavicle 1.51076e-014 2.78299e-015
rhumerus -97.4563 -17.0661 39.4095
rradius 13.4937
rwrist 122.347
rhand -1.49209 -9.07358
rfingers 7.12502
rthumb 24.1605 -37.572
lclavicle 1.51076e-014 2.78299e-015
lhumerus -72.6189 -0.733527 30.6581
lradius 15.5356
lwrist -70.857
lhand -7.00528 0.377514
lfingers 7.12502
lthumb 18.8657 29.4826
rfemur -62.185 -1.14243 22.2038
rtibia 72.5021
rfoot -26.487 -19.7472
rtoes -15.2592
lfemur -62.0759 -7.74591 -23.3938
ltibia 68.0795
lfoot -10.2564 30.2689
ltoes -2.66482
137
root 1.83425 14.0286 16.3828 -153.878 -4.22741 -185.08
lowerback 16.2914 0.743599 -3.78726
upperback 6.92214 -0.549965 0.24837
thorax -1.74725 -0.73999 2.51032
lowerneck -34.8787 -1.00456 0.602366
upperneck 28.3627 -2.42497 0.994834
head 15.8563 -0.83802 -0.24509
rclavicle -6.36111e-015 -3.57812e-015
rhumerus -99.5222 -16.3969 45.7023
rradius 13.8581
rwrist 127.137
rhand -1.58208 -9.01269
rfingers 7.12502
rthumb 24.0742 -37.5225
lclavicle -6.36111e-015 -3.57812e-015
lhumerus -73.1048 -0.180609 28.8123
lradius 15.2484
lwrist -73.0753
lhand -7.55291 0.140759
lfingers 7.12502
lthumb 18.339 29.2963
rfemur -63.2582 -0.984633 22.3014
rtibia 73.8894
rfoot -27.4654 -20.0364
rtoes -15.3472
lfemur -63.4368 -7.58716 -23.3577
ltibia 69.8789
lfoot -10.748 30.8077
ltoes -3.21057
138
root 1.83182 13.9049 16.3494 -153.419 -4.10357 -184.974
lowerback 16.6066 0.847645 -3.77424
upperback 7.03209 -0.451846 0.311126
thorax -1.80306 -0.704641 2.55536
lowerneck -34.6698 -1.03025 0.626035
upperneck 27.6188 -2.40069 0.983309
head 15.4665 -0.825065 -0.240253
rclavicle -6.36111e-015 9.54166e-015
rhumerus -101.736 -15.6509 52.3624
rradius 14.3803
rwrist 132.364
rhand -1.71455 -8.97655
rfingers 7.12502
rthumb 23.9471 -37.5031
lclavicle -6.36111e-015 9.54166e-015
lhumerus -73.53 0.56215 26.8344
lradius 14.9414
lwrist -75.2398
lhand -8.00534 0.020622
lfingers 7.12502
lthumb 17.9037 29.2165
rfemur -64.2449 -0.764628 22.4024
rtibia 75.2176
rfoot -28.574 -20.3668
rtoes -15.3965
lfemur -64.7677 -7.37289 -23.321
ltibia 71.7029
lfoot -11.3869 31.4167
ltoes -3.56248
139
root 1.82922 13.7821 16.3134 -152.951 -3.94082 -184.854
lowerback 16.9045 0.958082 -3.77906
upperback 7.1219 -0.344488 0.359977
thorax -1.87138 -0.662853 2.59363
lowerneck -34.4392 -1.04957 0.651975
upperneck 26.8943 -2.38345 0.990731
head 15.0897 -0.81358 -0.23002
rclavicle 3.97569e-015 1.59028e-015
rhumerus -103.974 -14.8239 58.8421
rradius 15.052
rwrist 137.59
rhand -1.90547 -8.96097
rfingers 7.12502
rthumb 23.7641 -37.5115
lclavicle 3.97569e-015 1.59028e-015
lhumerus -73.8951 1.45641 24.7842
lradius 14.6379
lwrist -77.1123
lhand -8.25237 0.00929919
lfingers 7.12502
lthumb 17.666 29.2268
rfemur -65.1598 -0.49365 22.4959
rtibia 76.4659
rfoot -29.734 -20.7256
rtoes -15.4355
lfemur -66.055 -7.12443 -23.2913
ltibia 73.4783
lfoot -12.1011 32.0467
ltoes -3.74959
140
root 1.82676 13.6608 16.2749 -152.468 -3.75006 -184.72
lowerback 17.1848 1.06971 -3.80128
upperback 7.18869 -0.233873 0.400059
thorax -1.95487 -0.617226 2.6313
lowerneck -34.2336 -1.04924 0.706489
upperneck 26.2281 -2.35513 0.977985
head 14.75 -0.798606 -0.231609
rclavicle -3.97569e-015 4.37326e-015
rhumerus -106.089 -14.0059 64.5561
rradius 15.8061
rwrist 142.318
rhand -2.14111 -8.97535
rfingers 7.12502
rthumb 23.538 -37.5551
lclavicle -3.97569e-015 4.37326e-015
lhumerus -74.2242 2.50279 22.6599
lradius 14.3316
lwrist -78.7702
lhand -8.33818 0.0783335
lfingers 7.12502
lthumb 17.5834 29.3032
rfemur -66.0495 -0.175373 22.5911
rtibia 77.684
rfoot -30.8821 -21.1224
rtoes -15.5214
lfemur -67.3124 -6.86201 -23.2515
ltibia 75.2055
lfoot -12.8389 32.6813
ltoes -3.84225
